<?xml version="1.0" encoding="UTF-8"?> <svg xmlns="http://www.w3.org/2000/svg" version="1.2" viewBox="0 0 2400 960" width="2400" height="960"><title>AdobeStock_81592687-ai</title><defs><linearGradient id="grd1" gradientUnits="userSpaceOnUse" x1="202.535" y1="496.146" x2="603.559" y2="496.146"><stop offset="0" stop-color="#000000"></stop><stop offset="1" stop-color="#418192"></stop></linearGradient><linearGradient id="grd2" gradientUnits="userSpaceOnUse" x1="11.195" y1="180.645" x2="415.271" y2="180.645"><stop offset="0" stop-color="#000000"></stop><stop offset="1" stop-color="#418192"></stop></linearGradient><linearGradient id="grd3" gradientUnits="userSpaceOnUse" x1="325.512" y1="180.64" x2="603.561" y2="180.64"><stop offset="0" stop-color="#000000"></stop><stop offset="1" stop-color="#000000"></stop></linearGradient><linearGradient id="grd4" gradientUnits="userSpaceOnUse" x1="11.213" y1="370.118" x2="286.205" y2="370.118"><stop offset="0" stop-color="#000000"></stop><stop offset="1" stop-color="#000000"></stop></linearGradient></defs><style> tspan { white-space:pre } .shp0 { fill: url(#grd1) } .shp1 { fill: url(#grd2) } .shp2 { fill: url(#grd3) } .shp3 { fill: url(#grd4) } .shp4 { fill: #418192 } .shp5 { fill: #000000 } .shp6 { fill: #beb28b } </style><g id="Layer 1"><g id="&lt;Group&gt;"><g id="&lt;Group&gt;"><path id="&lt;Path&gt;" class="shp0" d="M381.52 498.14L422.88 539.5L406.21 556.16L406.73 556.69L397.86 565.56L397.34 565.05L288.73 673.66L321.41 706.35C333.59 718.53 344.21 727.32 353.29 732.69C362.39 738.07 373.55 739.29 386.66 736.35C399.83 733.39 415.03 723.29 432.31 706.02C450.73 687.59 460.3 670.29 461.06 654.15C461.6 642.57 456.16 629.44 444.96 614.8L456 603.76C469.95 614.26 482.12 618.75 492.43 617.03C506.92 614.6 523.27 604.27 541.45 586.11C555.7 571.85 564.09 559.48 566.65 549.07C569.22 538.63 568.15 529.66 563.51 522.12C560.9 517.84 557.08 512.91 552.33 507.45L561.56 498.22C572.15 509.14 580.85 519.11 587.42 527.94C595.13 538.32 600.38 550.44 603.16 564.38C605.94 578.25 605.07 591.12 600.54 602.95C596.03 614.76 590.12 624.34 582.83 631.63C555.14 659.33 515.72 656.19 464.62 622.24L463.74 623.11C503.94 678.86 508.03 722.75 475.93 754.86C468.06 762.73 457.58 768.9 444.54 773.37C431.5 777.84 417.13 778.55 401.36 775.54C385.6 772.53 372.05 766.93 360.68 758.67C349.34 750.43 336.25 738.92 321.41 724.08L202.53 605.19L211.4 596.33L247.37 632.28L381.52 498.14Z"></path><path id="&lt;Path&gt;" class="shp1" d="M223.03 184.24C236.97 186.99 249.07 192.24 259.44 199.97C269.8 207.67 281.6 218.11 294.83 231.33L415.27 351.78L406.41 360.65L370.43 324.68L236.3 458.82L194.94 417.46L222.35 390.05L221.8 389.52L230.67 380.64L231.2 381.18L329.07 283.31L293.42 247.66C282.18 236.43 272.81 228.48 265.26 223.88C257.72 219.23 248.76 218.17 238.31 220.74C227.91 223.28 215.54 231.68 201.29 245.93C183.1 264.12 172.79 280.46 170.37 294.95C168.63 305.26 173.13 317.44 183.63 331.39L172.59 342.42C157.95 331.22 144.82 325.79 133.24 326.33C117.08 327.07 99.78 336.64 81.38 355.08C64.09 372.35 53.99 387.54 51.04 400.73C48.09 413.84 49.31 424.99 54.72 434.09C57.47 438.74 61.16 443.82 65.7 449.3L56.25 458.73C44.84 446.86 35.57 436.14 28.72 426.7C20.47 415.34 14.86 401.8 11.84 386.02C8.83 370.25 9.54 355.87 14.01 342.83C18.48 329.8 24.66 319.33 32.55 311.44C64.63 279.35 108.52 283.44 164.27 323.63L165.16 322.76C131.19 271.65 128.06 232.25 155.75 204.55C163.06 197.26 172.63 191.35 184.42 186.84C196.26 182.31 209.13 181.44 223.03 184.24Z"></path></g><g id="&lt;Group&gt;"><path id="&lt;Path&gt;" class="shp2" d="M325.51 405.86L366.87 364.5L383.55 381.18L384.07 380.65L392.94 389.53L392.43 390.04L501.03 498.64L533.73 465.97C545.9 453.79 554.69 443.17 560.07 434.1C565.45 425 566.67 413.83 563.72 400.73C560.77 387.55 550.67 372.36 533.4 355.08C514.96 336.65 497.68 327.08 481.53 326.32C469.96 325.78 456.82 331.22 442.18 342.42L431.15 331.38C441.64 317.44 446.14 305.26 444.41 294.95C441.98 280.46 431.65 264.12 413.48 245.93C399.22 231.68 386.87 223.29 376.45 220.73C366 218.16 357.04 219.24 349.5 223.88C345.22 226.48 340.29 230.3 334.83 235.05L325.6 225.82C336.52 215.24 346.48 206.53 355.32 199.96C365.71 192.25 377.82 187 391.75 184.23C405.64 181.44 418.5 182.31 430.33 186.84C442.14 191.35 451.72 197.26 459 204.55C486.71 232.24 483.57 271.66 449.62 322.76L450.49 323.64C506.24 283.44 550.14 279.35 582.23 311.46C590.11 319.33 596.28 329.8 600.74 342.85C605.22 355.88 605.93 370.26 602.92 386.03C599.91 401.78 594.3 415.34 586.05 426.7C577.81 438.04 566.3 451.13 551.47 465.97L432.58 584.86L423.71 575.99L459.66 540L325.51 405.86Z"></path><path id="&lt;Path&gt;" class="shp3" d="M11.62 564.36C14.39 550.43 19.63 538.31 27.36 527.94C35.05 517.58 45.51 505.77 58.71 492.57L179.18 372.11L188.04 380.98L152.07 416.95L286.2 551.08L244.84 592.44L217.43 565.04L216.9 565.57L208.03 556.7L208.56 556.18L110.7 458.32L75.05 493.96C63.82 505.21 55.87 514.57 51.26 522.11C46.61 529.66 45.56 538.61 48.13 549.07C50.66 559.47 59.06 571.84 73.32 586.1C91.5 604.29 107.85 614.6 122.35 617.03C132.64 618.76 144.82 614.26 158.79 603.76L169.8 614.8C158.61 629.44 153.18 642.57 153.72 654.14C154.46 670.29 164.03 687.59 182.47 705.99C199.73 723.29 214.93 733.4 228.11 736.33C241.23 739.3 252.37 738.07 261.47 732.68C266.12 729.91 271.21 726.24 276.68 721.69L286.11 731.12C274.25 742.54 263.53 751.82 254.08 758.66C242.72 766.93 229.19 772.53 213.4 775.54C197.63 778.56 183.27 777.84 170.22 773.37C157.19 768.9 146.72 762.73 138.83 754.84C106.73 722.76 110.82 678.85 151.02 623.12L150.16 622.24C99.04 656.18 59.64 659.33 31.94 631.63C24.65 624.34 18.75 614.75 14.22 602.95C9.7 591.12 8.83 578.25 11.62 564.36Z"></path></g></g><g id="Folder 2"><g id="&lt;Group&gt;"><path id="&lt;Path&gt;" class="shp4" d="M2081.91 527.68C2081.82 528.07 2067.04 562.17 2037.58 630C2118.19 629.92 2158.59 629.92 2158.78 630C2116.21 612.95 2087.93 573.87 2081.91 527.68Z"></path><path id="&lt;Path&gt;" class="shp5" d="M2212.2 299.67L2135.8 299.67L2303.6 630L2380 630L2212.2 299.67Z"></path></g><g id="&lt;Group&gt;"><path id="&lt;Path&gt;" class="shp5" d="M1893.32 301.45C1937.87 318.37 1967.46 357.13 1973.75 402.94C1973.85 402.56 1989.31 368.73 2020.14 301.45C1935.79 301.53 1893.52 301.53 1893.32 301.45Z"></path><path id="&lt;Path&gt;" class="shp5" d="M1627.56 301.45C1658.38 368.73 1673.84 402.56 1673.94 402.94C1680.23 357.13 1709.83 318.37 1754.37 301.45C1754.17 301.53 1711.9 301.53 1627.56 301.45Z"></path><path id="&lt;Path&gt;" class="shp5" d="M1787.22 629.11L1860.47 629.11L1860.47 301.45L1787.22 301.45L1787.22 629.11Z"></path></g><g id="&lt;Group&gt;"><path id="&lt;Path&gt;" class="shp5" d="M1528.76 595.28L1528.76 383.74C1536.42 365.73 1548.64 337.13 1565.4 297.92C1488.54 297.99 1450.02 297.99 1449.84 297.92C1490.43 314.44 1517.4 352.29 1523.13 397.04C1523.13 397.03 1523.17 396.93 1523.19 396.87L1523.19 588.41C1470.56 522.29 1388.09 390.8 1359.48 345.28C1343.26 319.46 1326.91 297.89 1301.76 297.89C1265.3 297.89 1241.12 297.89 1229.22 297.89C1238.98 298.5 1250.16 306.31 1262.26 318.97L1267.82 325.05C1312.58 376.09 1368.51 487.13 1412.39 553.27C1444.2 601.22 1476.26 625.55 1523.4 625.55C1539.91 625.55 1551.78 625.55 1559.02 625.55C1551.85 621.44 1541.31 610.53 1528.76 595.28Z"></path><path id="&lt;Path&gt;" class="shp4" d="M1259.8 518.79C1259.71 519.16 1245.62 552.2 1217.53 617.91C1294.39 617.83 1332.91 617.83 1333.09 617.91C1292.5 601.39 1265.53 563.53 1259.8 518.79Z"></path></g><path id="&lt;Path&gt;" class="shp5" d="M1131.38 617.53L1058.32 617.53L1058.32 297L1131.38 297L1131.38 617.53Z"></path><g id="&lt;Group&gt;"><path id="&lt;Path&gt;" class="shp6" d="M794.76 617.53C793.25 617.53 792.1 617.52 791.31 617.52C792.15 617.54 793.3 617.55 794.76 617.53Z"></path><path id="&lt;Path&gt;" class="shp6" d="M797.21 297.55L798.54 297.55C797.98 297.54 797.54 297.54 797.21 297.55Z"></path><path id="&lt;Path&gt;" class="shp5" d="M883.25 448.88C899.48 448.9 954.03 431.54 951.93 371.89C949.45 301.37 854.15 297.55 798.54 297.55C809.71 297.68 885.2 305.5 889.84 364.63C893.21 407.63 862.24 444.16 802.38 448.73C876.29 452.06 912.51 478.32 911.66 528.32C910.63 589.55 813.68 618.3 794.76 617.53C910.36 622.27 986.34 610.35 986.34 531.96C986.34 468.24 931.56 453.88 883.25 448.88Z"></path><path id="&lt;Path&gt;" class="shp5" d="M693 617.35L763.67 617.35L763.67 297L693 297L693 617.35Z"></path></g></g><path id="BEAUTY " fill="#418192" aria-label="BEAUTY" d="M1852.14 711.93Q1858.21 713.14 1862.38 715.35Q1866.62 717.48 1869.25 720.47Q1871.88 723.47 1873.05 727.1Q1874.3 730.73 1874.3 734.86Q1874.3 738.42 1873.13 741.91Q1871.96 745.4 1869.69 748.46Q1867.49 751.53 1864.35 754.02Q1861.21 756.51 1857.26 758.01Q1849.14 761.07 1832.39 761.07L1800.29 761.07L1800.29 681.73Q1800.29 672.61 1798.31 670.12Q1796.7 668.55 1794.66 667.84Q1792.61 667.13 1789.76 667.13L1786.03 667.13L1786.03 664.49L1828.66 664.49Q1835.83 664.49 1841.31 665.14Q1846.87 665.71 1851.11 667.06Q1855.36 668.34 1858.5 670.41Q1861.72 672.47 1864.13 675.39Q1866.91 678.74 1868.37 682.37Q1869.83 686 1869.83 690.42Q1869.83 697.33 1865.52 703.03Q1861.28 708.72 1852.14 711.93ZM1814.26 670.76L1814.26 754.02Q1818.42 755.09 1822.45 755.59Q1826.54 756.09 1830.64 756.09Q1836.93 756.09 1841.9 754.59Q1846.87 753.09 1850.31 750.39Q1853.82 747.68 1855.65 743.98Q1857.55 740.27 1857.55 735.79Q1857.55 733.08 1856.82 730.37Q1856.09 727.6 1854.55 724.89Q1853.01 722.61 1850.97 720.97Q1848.99 719.34 1846.73 717.91Q1844.53 716.77 1841.53 715.85Q1838.54 714.92 1835.17 714.28Q1831.81 713.57 1828.44 713.21Q1825.08 712.85 1822.23 712.85Q1821.42 712.85 1820.69 712.85Q1820.03 712.85 1819.45 712.93Q1821.72 711.36 1824.93 710.58Q1828.15 709.72 1831.51 709.22Q1834.95 708.65 1838.1 708.15Q1841.31 707.58 1843.58 706.59Q1846.51 705.66 1848.63 703.81Q1850.75 701.89 1852.14 699.61Q1853.53 697.26 1854.18 694.69Q1854.92 692.06 1854.92 689.64Q1854.92 685.36 1853.09 681.8Q1851.33 678.17 1847.68 675.39Q1844.09 672.19 1838.97 670.83Q1833.93 669.48 1827.2 669.48Q1823.62 669.48 1820.33 669.76Q1817.11 669.98 1814.26 670.76ZM1941.14 669.84L1914.37 669.84L1914.37 707.8L1953.64 707.8L1953.64 713.07L1914.37 713.07L1914.37 744.83Q1914.37 748.04 1914.44 749.82Q1914.59 751.6 1914.88 752.6Q1915.25 753.52 1915.76 753.95Q1916.27 754.38 1917.08 754.8Q1917.59 755.02 1918.98 755.23Q1920.44 755.44 1922.49 755.44L1939.09 755.44Q1943.33 755.44 1946.11 755.3Q1948.89 755.09 1950.94 754.52Q1952.98 753.88 1954.59 752.81Q1956.2 751.67 1958.1 749.82Q1960.44 747.54 1962.71 744.33Q1964.98 741.13 1967.24 736.64L1970.32 736.64L1961.83 760.72L1900.4 760.72L1900.4 681.37Q1900.4 676.67 1900.04 673.97Q1899.75 671.19 1898.72 670.19Q1896.16 667.13 1889.95 667.13L1886.51 667.13L1886.51 664.57L1961.83 664.57L1961.83 685.65L1960.15 685.65Q1959.05 680.52 1957.88 677.46Q1956.79 674.32 1954.74 672.69Q1952.76 670.98 1949.55 670.41Q1946.33 669.84 1941.14 669.84ZM2080.82 758.44L2080.82 761.07Q2079.79 761.07 2078.33 761.21Q2076.87 761.28 2075.11 761.28Q2072.26 761.28 2068.82 760.72Q2065.38 760.15 2061.87 758.22Q2058.36 756.3 2055 752.67Q2051.71 749.03 2049.08 742.84L2024.29 685.01L2010.24 716.2Q2011.85 714.85 2014.63 714.28Q2017.48 713.64 2020.78 713.64Q2024.65 713.64 2028.38 714.42Q2032.18 715.2 2034.45 716.56Q2029.99 716.7 2026.04 717.84Q2022.09 718.98 2018.65 720.76Q2015.29 722.54 2012.37 724.89Q2009.51 727.17 2007.17 729.66Q2004.91 732.08 2003.15 734.58Q2001.47 737 2000.37 739.13L1990.79 761.07L1983.99 761.07L2026.92 662.79L2029.7 662.79L2063.78 742.84Q2065.6 746.97 2067.21 749.82Q2068.82 752.67 2070.65 754.52Q2072.55 756.3 2074.89 757.23Q2077.3 758.15 2080.82 758.44ZM2168.21 664.42L2174.79 664.42L2174.79 721.19Q2174.79 728.45 2174.06 734.01Q2173.32 739.49 2172.01 743.48Q2170.55 747.54 2167.62 751.03Q2164.77 754.45 2160.38 757.23Q2155.99 760.22 2150.14 761.57Q2144.29 762.92 2136.76 762.92Q2120.74 762.92 2112.11 757.58Q2107.95 754.8 2104.95 751.1Q2101.95 747.4 2100.34 742.84Q2099.1 739.56 2098.51 733.65Q2098 727.74 2098 719.19L2098 681.52Q2098 672.4 2095.29 669.76Q2094.27 668.34 2092.22 667.77Q2090.25 667.13 2087.4 667.13L2083.67 667.13L2083.67 664.42L2107.95 664.42Q2109.85 664.42 2110.73 665.14Q2111.68 665.85 2111.97 667.77Q2112.26 669.62 2112.19 672.97Q2112.11 676.25 2112.11 681.52L2112.11 723.54Q2112.11 726.24 2112.33 729.52Q2112.55 732.72 2113.07 736.14Q2113.65 739.99 2114.6 742.77Q2115.55 745.54 2116.94 747.54Q2118.18 749.53 2120.16 751.24Q2122.21 752.95 2124.77 754.16Q2127.33 755.44 2130.62 756.23Q2133.91 756.94 2137.71 756.94Q2142.68 756.94 2146.78 755.94Q2150.95 754.87 2154.9 752.88Q2158.85 750.6 2161.4 748.04Q2163.96 745.47 2165.57 742.2Q2166.82 738.92 2167.47 733.51Q2168.21 728.1 2168.21 720.55L2168.21 664.42ZM2278.34 686.64L2275.41 686.64Q2275.12 683.08 2274.32 680.66Q2273.59 678.17 2272.42 676.53Q2271.32 674.82 2270 673.82Q2268.69 672.76 2267.3 671.97Q2263.64 670.05 2257.57 670.05L2243.82 670.05L2243.82 760.93L2229.78 760.93L2229.78 670.05L2218.08 670.05Q2214.2 670.05 2211.65 670.33Q2209.09 670.62 2207.26 671.33Q2205.43 672.04 2204.19 673.25Q2203.02 674.47 2201.92 676.32Q2200.6 678.24 2199.65 680.73Q2198.77 683.15 2198.55 686.64L2195.85 686.64Q2195.92 685.5 2195.92 684.44Q2196 683.3 2196 682.3Q2196 679.81 2195.85 677.67Q2195.78 675.53 2195.78 673.68Q2195.78 671.26 2196.14 669.48Q2196.58 667.63 2197.9 666.49Q2199.29 665.28 2201.85 664.71Q2204.41 664.14 2208.65 664.14L2266.93 664.14Q2270.73 664.14 2273 664.78Q2275.34 665.35 2276.58 666.49Q2277.83 667.63 2278.27 669.34Q2278.71 671.05 2278.71 673.25Q2278.71 675.53 2278.49 678.31Q2278.27 681.02 2278.27 684.29Q2278.27 684.86 2278.27 685.5Q2278.27 686.07 2278.34 686.64ZM2371.58 664.42L2378.31 664.42L2342.84 719.83L2342.84 760.86L2329.09 760.86L2329.09 721.12Q2321.56 709.86 2316.22 701.96Q2310.96 694.05 2307.37 688.71Q2303.79 683.3 2301.6 680.16Q2299.47 676.96 2298.23 675.25Q2297.06 673.54 2296.55 672.9Q2296.04 672.26 2295.67 671.97Q2293.62 669.69 2290.48 668.41Q2287.41 667.06 2284.63 667.06L2284.63 664.42Q2290.84 664.42 2294.43 664.42Q2298.01 664.42 2299.91 664.42Q2301.81 664.35 2302.47 664.35Q2303.13 664.35 2303.5 664.35Q2305.4 664.35 2306.57 664.85Q2307.81 665.35 2309.27 667.2Q2310.81 668.98 2313.08 672.61Q2315.34 676.17 2319.44 682.37L2339.84 713.64L2371.58 664.42Z"></path></g></svg> 